<?xml version="1.0" encoding="UTF-8" standalone="no"?>
<!DOCTYPE svg PUBLIC "-//W3C//DTD SVG 1.1//EN"
 "http://www.w3.org/Graphics/SVG/1.1/DTD/svg11.dtd">
<!-- Generated by graphviz version 2.40.1 (20161225.0304)
 -->
<!-- Title: G Pages: 1 -->
<svg width="708pt" height="368pt"
 viewBox="0.00 0.00 707.88 368.00" xmlns="http://www.w3.org/2000/svg" xmlns:xlink="http://www.w3.org/1999/xlink">
<g id="graph0" class="graph" transform="scale(1 1) rotate(0) translate(4 364)">
<title>G</title>
<polygon fill="#ffffff" stroke="transparent" points="-4,4 -4,-364 703.883,-364 703.883,4 -4,4"/>
<!-- A0 -->
<g id="node1" class="node">
<title>A0</title>
<polygon fill="none" stroke="#000000" points="308.5986,-360 189.3644,-360 189.3644,-324 308.5986,-324 308.5986,-360"/>
<text text-anchor="middle" x="248.9815" y="-339" font-family="Helvetica,sans-Serif" font-size="10.00" fill="#000000">WebpackFileSystem</text>
</g>
<!-- A1 -->
<g id="node2" class="node">
<title>A1</title>
<polygon fill="none" stroke="#000000" points="502.1976,-360 392.9274,-360 392.9274,-324 502.1976,-324 502.1976,-360"/>
<text text-anchor="middle" x="447.5625" y="-339" font-family="Helvetica,sans-Serif" font-size="10.00" fill="#000000">&lt;&lt; IFileSystem &gt;&gt;</text>
</g>
<!-- A0&#45;&gt;A1 -->
<g id="edge1" class="edge">
<title>A0&#45;&gt;A1</title>
<path fill="none" stroke="#000000" stroke-dasharray="5,2" d="M308.5623,-342C331.9539,-342 358.866,-342 382.742,-342"/>
<polygon fill="none" stroke="#000000" points="382.7696,-345.5001 392.7696,-342 382.7695,-338.5001 382.7696,-345.5001"/>
</g>
<!-- A2 -->
<g id="node3" class="node">
<title>A2</title>
<polygon fill="none" stroke="#000000" points="316.1166,-306 181.8464,-306 181.8464,-270 316.1166,-270 316.1166,-306"/>
<text text-anchor="middle" x="248.9815" y="-285" font-family="Helvetica,sans-Serif" font-size="10.00" fill="#000000">WebpackAssetManager</text>
</g>
<!-- A3 -->
<g id="node4" class="node">
<title>A3</title>
<polygon fill="none" stroke="#000000" points="509.7156,-306 385.4094,-306 385.4094,-270 509.7156,-270 509.7156,-306"/>
<text text-anchor="middle" x="447.5625" y="-285" font-family="Helvetica,sans-Serif" font-size="10.00" fill="#000000">&lt;&lt; IAssetManager &gt;&gt;</text>
</g>
<!-- A2&#45;&gt;A3 -->
<g id="edge2" class="edge">
<title>A2&#45;&gt;A3</title>
<path fill="none" stroke="#000000" stroke-dasharray="5,2" d="M316.212,-288C335.1921,-288 355.9232,-288 375.1913,-288"/>
<polygon fill="none" stroke="#000000" points="375.4196,-291.5001 385.4196,-288 375.4196,-284.5001 375.4196,-291.5001"/>
</g>
<!-- A4 -->
<g id="node5" class="node">
<title>A4</title>
<polygon fill="none" stroke="#000000" points="131.871,-252 .043,-252 .043,-216 131.871,-216 131.871,-252"/>
<text text-anchor="middle" x="65.957" y="-231" font-family="Helvetica,sans-Serif" font-size="10.00" fill="#000000">WebpackLicensePlugin</text>
</g>
<!-- A4&#45;&gt;A0 -->
<g id="edge3" class="edge">
<title>A4&#45;&gt;A0</title>
<path fill="none" stroke="#000000" d="M98.2179,-259.523C120.7991,-276.6259 152.1387,-298.8789 181.914,-315 187.764,-318.1674 194.0664,-321.1805 200.3832,-323.9675"/>
<polygon fill="#000000" stroke="#000000" points="98.0186,-259.3702 90.8233,-258.8932 88.4962,-252.0679 95.6915,-252.5449 98.0186,-259.3702"/>
<text text-anchor="middle" x="180.3863" y="-321.3211" font-family="Helvetica,sans-Serif" font-size="10.00" fill="#000000">1</text>
</g>
<!-- A4&#45;&gt;A2 -->
<g id="edge7" class="edge">
<title>A4&#45;&gt;A2</title>
<path fill="none" stroke="#000000" d="M138.8101,-255.4948C155.0566,-260.2882 172.1225,-265.3233 187.8402,-269.9607"/>
<polygon fill="#000000" stroke="#000000" points="138.6655,-255.4522 131.7788,-257.5907 127.156,-252.0563 134.0427,-249.9177 138.6655,-255.4522"/>
<text text-anchor="middle" x="168.0631" y="-269.9382" font-family="Helvetica,sans-Serif" font-size="10.00" fill="#000000">1</text>
</g>
<!-- A5 -->
<g id="node6" class="node">
<title>A5</title>
<polygon fill="none" stroke="#000000" points="314.2247,-252 183.7383,-252 183.7383,-216 314.2247,-216 314.2247,-252"/>
<text text-anchor="middle" x="248.9815" y="-231" font-family="Helvetica,sans-Serif" font-size="10.00" fill="#000000">WebpackChunkIterator</text>
</g>
<!-- A4&#45;&gt;A5 -->
<g id="edge4" class="edge">
<title>A4&#45;&gt;A5</title>
<path fill="none" stroke="#000000" d="M144.4164,-234C157.4857,-234 170.9175,-234 183.6161,-234"/>
<polygon fill="#000000" stroke="#000000" points="144.033,-234.0001 138.033,-238 132.033,-234 138.0331,-230 144.033,-234.0001"/>
<text text-anchor="middle" x="165.4899" y="-239.4524" font-family="Helvetica,sans-Serif" font-size="10.00" fill="#000000">1</text>
</g>
<!-- A8 -->
<g id="node9" class="node">
<title>A8</title>
<polygon fill="none" stroke="#000000" points="298.659,-198 199.304,-198 199.304,-162 298.659,-162 298.659,-198"/>
<text text-anchor="middle" x="248.9815" y="-177" font-family="Helvetica,sans-Serif" font-size="10.00" fill="#000000">OptionsProvider</text>
</g>
<!-- A4&#45;&gt;A8 -->
<g id="edge8" class="edge">
<title>A4&#45;&gt;A8</title>
<path fill="none" stroke="#000000" d="M138.873,-212.4867C159.0747,-206.5263 180.5387,-200.1935 199.0991,-194.7174"/>
<polygon fill="#000000" stroke="#000000" points="138.6655,-212.5478 134.0427,-218.0823 127.156,-215.9437 131.7788,-210.4093 138.6655,-212.5478"/>
<text text-anchor="middle" x="184.1058" y="-204.9537" font-family="Helvetica,sans-Serif" font-size="10.00" fill="#000000">1</text>
</g>
<!-- A9 -->
<g id="node10" class="node">
<title>A9</title>
<polygon fill="none" stroke="#000000" points="301.6967,-144 196.2663,-144 196.2663,-108 301.6967,-108 301.6967,-144"/>
<text text-anchor="middle" x="248.9815" y="-123" font-family="Helvetica,sans-Serif" font-size="10.00" fill="#000000">LicenseFileWriter</text>
</g>
<!-- A4&#45;&gt;A9 -->
<g id="edge9" class="edge">
<title>A4&#45;&gt;A9</title>
<path fill="none" stroke="#000000" d="M98.2179,-208.477C120.7991,-191.3741 152.1387,-169.1211 181.914,-153 187.764,-149.8326 194.0664,-146.8195 200.3832,-144.0325"/>
<polygon fill="#000000" stroke="#000000" points="98.0186,-208.6298 95.6915,-215.4551 88.4962,-215.9321 90.8233,-209.1068 98.0186,-208.6298"/>
<text text-anchor="middle" x="187.2586" y="-156.1237" font-family="Helvetica,sans-Serif" font-size="10.00" fill="#000000">1</text>
</g>
<!-- A6 -->
<g id="node7" class="node">
<title>A6</title>
<polygon fill="none" stroke="#000000" points="529.0895,-252 366.0355,-252 366.0355,-216 529.0895,-216 529.0895,-252"/>
<text text-anchor="middle" x="447.5625" y="-231" font-family="Helvetica,sans-Serif" font-size="10.00" fill="#000000">WebpackChunkModuleIterator</text>
</g>
<!-- A5&#45;&gt;A6 -->
<g id="edge5" class="edge">
<title>A5&#45;&gt;A6</title>
<path fill="none" stroke="#000000" d="M326.4911,-234C339.4257,-234 352.879,-234 365.9133,-234"/>
<polygon fill="#000000" stroke="#000000" points="326.2794,-234.0001 320.2794,-238 314.2794,-234 320.2794,-230 326.2794,-234.0001"/>
<text text-anchor="middle" x="347.7871" y="-239.4524" font-family="Helvetica,sans-Serif" font-size="10.00" fill="#000000">1</text>
</g>
<!-- A7 -->
<g id="node8" class="node">
<title>A7</title>
<polygon fill="none" stroke="#000000" points="522.7997,-198 372.3253,-198 372.3253,-162 522.7997,-162 522.7997,-198"/>
<text text-anchor="middle" x="447.5625" y="-177" font-family="Helvetica,sans-Serif" font-size="10.00" fill="#000000">WebpackModuleFileIterator</text>
</g>
<!-- A5&#45;&gt;A7 -->
<g id="edge6" class="edge">
<title>A5&#45;&gt;A7</title>
<path fill="none" stroke="#000000" d="M326.0638,-213.0391C344.2686,-208.0886 363.5231,-202.8528 381.206,-198.0443"/>
<polygon fill="#000000" stroke="#000000" points="325.8589,-213.0947 321.1188,-218.529 314.2794,-216.2436 319.0195,-210.8093 325.8589,-213.0947"/>
<text text-anchor="middle" x="365.933" y="-207.9568" font-family="Helvetica,sans-Serif" font-size="10.00" fill="#000000">1</text>
</g>
<!-- A10 -->
<g id="node11" class="node">
<title>A10</title>
<polygon fill="none" stroke="#000000" points="514.6836,-144 380.4414,-144 380.4414,-108 514.6836,-108 514.6836,-144"/>
<text text-anchor="middle" x="447.5625" y="-123" font-family="Helvetica,sans-Serif" font-size="10.00" fill="#000000">ModuleDirectoryLocator</text>
</g>
<!-- A9&#45;&gt;A10 -->
<g id="edge10" class="edge">
<title>A9&#45;&gt;A10</title>
<path fill="none" stroke="#000000" d="M313.9009,-126C335.1952,-126 358.8957,-126 380.3558,-126"/>
<polygon fill="#000000" stroke="#000000" points="313.6762,-126.0001 307.6762,-130 301.6762,-126 307.6762,-122 313.6762,-126.0001"/>
<text text-anchor="middle" x="362.2297" y="-131.4524" font-family="Helvetica,sans-Serif" font-size="10.00" fill="#000000">1</text>
</g>
<!-- A11 -->
<g id="node12" class="node">
<title>A11</title>
<polygon fill="none" stroke="#000000" points="514.7036,-90 380.4214,-90 380.4214,-54 514.7036,-54 514.7036,-90"/>
<text text-anchor="middle" x="447.5625" y="-69" font-family="Helvetica,sans-Serif" font-size="10.00" fill="#000000">LicenseMetaAggregator</text>
</g>
<!-- A9&#45;&gt;A11 -->
<g id="edge11" class="edge">
<title>A9&#45;&gt;A11</title>
<path fill="none" stroke="#000000" d="M313.418,-108.4778C335.0787,-102.5877 359.2741,-96.0082 381.0884,-90.0762"/>
<polygon fill="#000000" stroke="#000000" points="313.2557,-108.5219 308.5156,-113.9562 301.6762,-111.6708 306.4163,-106.2365 313.2557,-108.5219"/>
<text text-anchor="middle" x="365.8153" y="-99.9887" font-family="Helvetica,sans-Serif" font-size="10.00" fill="#000000">1</text>
</g>
<!-- A12 -->
<g id="node13" class="node">
<title>A12</title>
<polygon fill="none" stroke="#000000" points="689.7747,-144 589.1843,-144 589.1843,-108 689.7747,-108 689.7747,-144"/>
<text text-anchor="middle" x="639.4795" y="-123" font-family="Helvetica,sans-Serif" font-size="10.00" fill="#000000">LicenseIdentifier</text>
</g>
<!-- A11&#45;&gt;A12 -->
<g id="edge12" class="edge">
<title>A11&#45;&gt;A12</title>
<path fill="none" stroke="#000000" d="M523.4396,-93.3497C545.4669,-99.5475 568.9721,-106.1612 589.0267,-111.804"/>
<polygon fill="#000000" stroke="#000000" points="523.2864,-93.3066 516.4272,-95.5319 511.7349,-90.0563 518.5941,-87.831 523.2864,-93.3066"/>
<text text-anchor="middle" x="569.2887" y="-112.0309" font-family="Helvetica,sans-Serif" font-size="10.00" fill="#000000">1</text>
</g>
<!-- A13 -->
<g id="node14" class="node">
<title>A13</title>
<polygon fill="none" stroke="#000000" points="696.6659,-90 582.2931,-90 582.2931,-54 696.6659,-54 696.6659,-90"/>
<text text-anchor="middle" x="639.4795" y="-69" font-family="Helvetica,sans-Serif" font-size="10.00" fill="#000000">LicenseTextReader</text>
</g>
<!-- A11&#45;&gt;A13 -->
<g id="edge13" class="edge">
<title>A11&#45;&gt;A13</title>
<path fill="none" stroke="#000000" d="M526.7588,-72C545.3676,-72 564.8444,-72 582.2717,-72"/>
<polygon fill="#000000" stroke="#000000" points="526.6858,-72.0001 520.6857,-76 514.6858,-72 520.6858,-68 526.6858,-72.0001"/>
<text text-anchor="middle" x="564.1455" y="-77.4524" font-family="Helvetica,sans-Serif" font-size="10.00" fill="#000000">1</text>
</g>
<!-- A14 -->
<g id="node15" class="node">
<title>A14</title>
<polygon fill="none" stroke="#000000" points="699.7867,-36 579.1723,-36 579.1723,0 699.7867,0 699.7867,-36"/>
<text text-anchor="middle" x="639.4795" y="-15" font-family="Helvetica,sans-Serif" font-size="10.00" fill="#000000">PackageJsonReader</text>
</g>
<!-- A11&#45;&gt;A14 -->
<g id="edge14" class="edge">
<title>A11&#45;&gt;A14</title>
<path fill="none" stroke="#000000" d="M523.3684,-50.6704C541.8169,-45.4795 561.3062,-39.9957 578.9395,-35.0342"/>
<polygon fill="#000000" stroke="#000000" points="523.2864,-50.6934 518.5941,-56.169 511.7349,-53.9437 516.4272,-48.4681 523.2864,-50.6934"/>
<text text-anchor="middle" x="563.7802" y="-45.0802" font-family="Helvetica,sans-Serif" font-size="10.00" fill="#000000">1</text>
</g>
</g>
</svg>
