<svg xmlns="http://www.w3.org/2000/svg" width="2237.75" height="1048">
<defs><marker id="arrow-filled" refX="6" refY="3" markerWidth="6" markerHeight="6" orient="auto"><path d="M0,0 6,3 0,6z" style="stroke: none; fill: black;"></path></marker><marker id="arrow-open" refX="6" refY="3" markerWidth="6" markerHeight="6" orient="auto"><path d="M0,0 6,3 0,6" style="stroke-width: 1; stroke: black;"></path></marker></defs><rect width="181.5" height="38" style="stroke-width: 1; fill: none; stroke: black;" x="10" y="20"></rect><g><text fill="black" x="100.75" y="39" style="text-anchor: middle; alignment-baseline: central;">Webpack.Compilation</text></g><rect width="181.5" height="38" style="stroke-width: 1; fill: none; stroke: black;" x="10" y="990"></rect><g><text fill="black" x="100.75" y="1009" style="text-anchor: middle; alignment-baseline: central;">Webpack.Compilation</text></g><path d="M100.75,58 v932" style="stroke-width: 1; fill: none; stroke: black;"></path><rect width="156" height="38" style="stroke-width: 1; fill: none; stroke: black;" x="211.5" y="20"></rect><g><text fill="black" x="289.5" y="39" style="text-anchor: middle; alignment-baseline: central;">Webpack.Compiler</text></g><rect width="156" height="38" style="stroke-width: 1; fill: none; stroke: black;" x="211.5" y="990"></rect><g><text fill="black" x="289.5" y="1009" style="text-anchor: middle; alignment-baseline: central;">Webpack.Compiler</text></g><path d="M289.5,58 v932" style="stroke-width: 1; fill: none; stroke: black;"></path><rect width="130.5" height="38" style="stroke-width: 1; fill: none; stroke: black;" x="439.75" y="20"></rect><g><text fill="black" x="505" y="39" style="text-anchor: middle; alignment-baseline: central;">licensePlugin</text></g><rect width="130.5" height="38" style="stroke-width: 1; fill: none; stroke: black;" x="439.75" y="990"></rect><g><text fill="black" x="505" y="1009" style="text-anchor: middle; alignment-baseline: central;">licensePlugin</text></g><path d="M505,58 v932" style="stroke-width: 1; fill: none; stroke: black;"></path><rect width="130.5" height="38" style="stroke-width: 1; fill: none; stroke: black;" x="590.25" y="20"></rect><g><text fill="black" x="655.5" y="39" style="text-anchor: middle; alignment-baseline: central;">chunkIterator</text></g><rect width="130.5" height="38" style="stroke-width: 1; fill: none; stroke: black;" x="590.25" y="990"></rect><g><text fill="black" x="655.5" y="1009" style="text-anchor: middle; alignment-baseline: central;">chunkIterator</text></g><path d="M655.5,58 v932" style="stroke-width: 1; fill: none; stroke: black;"></path><rect width="139" height="38" style="stroke-width: 1; fill: none; stroke: black;" x="742" y="20"></rect><g><text fill="black" x="811.5" y="39" style="text-anchor: middle; alignment-baseline: central;">moduleIterator</text></g><rect width="139" height="38" style="stroke-width: 1; fill: none; stroke: black;" x="742" y="990"></rect><g><text fill="black" x="811.5" y="1009" style="text-anchor: middle; alignment-baseline: central;">moduleIterator</text></g><path d="M811.5,58 v932" style="stroke-width: 1; fill: none; stroke: black;"></path><rect width="122" height="38" style="stroke-width: 1; fill: none; stroke: black;" x="901" y="20"></rect><g><text fill="black" x="962" y="39" style="text-anchor: middle; alignment-baseline: central;">fileIterator</text></g><rect width="122" height="38" style="stroke-width: 1; fill: none; stroke: black;" x="901" y="990"></rect><g><text fill="black" x="962" y="1009" style="text-anchor: middle; alignment-baseline: central;">fileIterator</text></g><path d="M962,58 v932" style="stroke-width: 1; fill: none; stroke: black;"></path><rect width="164.5" height="38" style="stroke-width: 1; fill: none; stroke: black;" x="1043" y="20"></rect><g><text fill="black" x="1125.25" y="39" style="text-anchor: middle; alignment-baseline: central;">licenseFileWriter</text></g><rect width="164.5" height="38" style="stroke-width: 1; fill: none; stroke: black;" x="1043" y="990"></rect><g><text fill="black" x="1125.25" y="1009" style="text-anchor: middle; alignment-baseline: central;">licenseFileWriter</text></g><path d="M1125.25,58 v932" style="stroke-width: 1; fill: none; stroke: black;"></path><rect width="122" height="38" style="stroke-width: 1; fill: none; stroke: black;" x="1274.25" y="20"></rect><g><text fill="black" x="1335.25" y="39" style="text-anchor: middle; alignment-baseline: central;">assetManager</text></g><rect width="122" height="38" style="stroke-width: 1; fill: none; stroke: black;" x="1274.25" y="990"></rect><g><text fill="black" x="1335.25" y="1009" style="text-anchor: middle; alignment-baseline: central;">assetManager</text></g><path d="M1335.25,58 v932" style="stroke-width: 1; fill: none; stroke: black;"></path><rect width="198.5" height="38" style="stroke-width: 1; fill: none; stroke: black;" x="1416.25" y="20"></rect><g><text fill="black" x="1515.5" y="39" style="text-anchor: middle; alignment-baseline: central;">licenseMetaAggregator</text></g><rect width="198.5" height="38" style="stroke-width: 1; fill: none; stroke: black;" x="1416.25" y="990"></rect><g><text fill="black" x="1515.5" y="1009" style="text-anchor: middle; alignment-baseline: central;">licenseMetaAggregator</text></g><path d="M1515.5,58 v932" style="stroke-width: 1; fill: none; stroke: black;"></path><rect width="164.5" height="38" style="stroke-width: 1; fill: none; stroke: black;" x="1674.25" y="20"></rect><g><text fill="black" x="1756.5" y="39" style="text-anchor: middle; alignment-baseline: central;">packageJsonReader</text></g><rect width="164.5" height="38" style="stroke-width: 1; fill: none; stroke: black;" x="1674.25" y="990"></rect><g><text fill="black" x="1756.5" y="1009" style="text-anchor: middle; alignment-baseline: central;">packageJsonReader</text></g><path d="M1756.5,58 v932" style="stroke-width: 1; fill: none; stroke: black;"></path><rect width="164.5" height="38" style="stroke-width: 1; fill: none; stroke: black;" x="1858.75" y="20"></rect><g><text fill="black" x="1941" y="39" style="text-anchor: middle; alignment-baseline: central;">licenseIdentifier</text></g><rect width="164.5" height="38" style="stroke-width: 1; fill: none; stroke: black;" x="1858.75" y="990"></rect><g><text fill="black" x="1941" y="1009" style="text-anchor: middle; alignment-baseline: central;">licenseIdentifier</text></g><path d="M1941,58 v932" style="stroke-width: 1; fill: none; stroke: black;"></path><rect width="164.5" height="38" style="stroke-width: 1; fill: none; stroke: black;" x="2043.25" y="20"></rect><g><text fill="black" x="2125.5" y="39" style="text-anchor: middle; alignment-baseline: central;">licenseTextReader</text></g><rect width="164.5" height="38" style="stroke-width: 1; fill: none; stroke: black;" x="2043.25" y="990"></rect><g><text fill="black" x="2125.5" y="1009" style="text-anchor: middle; alignment-baseline: central;">licenseTextReader</text></g><path d="M2125.5,58 v932" style="stroke-width: 1; fill: none; stroke: black;"></path><g><text fill="black" x="397.25" y="83" style="text-anchor: middle; alignment-baseline: central;">hooks.compilation.tap()</text></g><path d="M505,96 h-215.5" style="stroke-width: 1; fill: none; stroke: black;" marker-end="url(#arrow-filled)"></path><g><text fill="black" x="397.25" y="121" style="text-anchor: middle; alignment-baseline: central;">on compilation</text></g><path d="M289.5,134 h215.5" style="stroke-width: 1; fill: none; stroke: black;" stroke-dasharray="7,4" marker-end="url(#arrow-filled)"></path><g><text fill="black" x="302.875" y="159" style="text-anchor: middle; alignment-baseline: central;">hook.optimizeChunkAssets.tap()</text></g><path d="M505,172 h-404.25" style="stroke-width: 1; fill: none; stroke: black;" marker-end="url(#arrow-filled)"></path><g><text fill="black" x="302.875" y="197" style="text-anchor: middle; alignment-baseline: central;">on optimizeChunkAssets</text></g><path d="M100.75,210 h404.25" style="stroke-width: 1; fill: none; stroke: black;" stroke-dasharray="7,4" marker-end="url(#arrow-filled)"></path><g><text fill="black" x="580.25" y="235" style="text-anchor: middle; alignment-baseline: central;">iterateChunks()</text></g><path d="M505,248 h150.5" style="stroke-width: 1; fill: none; stroke: black;" marker-end="url(#arrow-filled)"></path><g><text fill="black" x="733.5" y="273" style="text-anchor: middle; alignment-baseline: central;">iterateModules()</text></g><path d="M655.5,286 h156" style="stroke-width: 1; fill: none; stroke: black;" marker-end="url(#arrow-filled)"></path><g><text fill="black" x="733.5" y="311" style="text-anchor: middle; alignment-baseline: central;">modules</text></g><path d="M811.5,324 h-156" style="stroke-width: 1; fill: none; stroke: black;" stroke-dasharray="7,4" marker-end="url(#arrow-filled)"></path><g><text fill="black" x="808.75" y="349" style="text-anchor: middle; alignment-baseline: central;">iterateFiles()</text></g><path d="M655.5,362 h306.5" style="stroke-width: 1; fill: none; stroke: black;" marker-end="url(#arrow-filled)"></path><g><text fill="black" x="808.75" y="387" style="text-anchor: middle; alignment-baseline: central;">files</text></g><path d="M962,400 h-306.5" style="stroke-width: 1; fill: none; stroke: black;" stroke-dasharray="7,4" marker-end="url(#arrow-filled)"></path><g><text fill="black" x="580.25" y="425" style="text-anchor: middle; alignment-baseline: central;">files</text></g><path d="M655.5,438 h-150.5" style="stroke-width: 1; fill: none; stroke: black;" stroke-dasharray="7,4" marker-end="url(#arrow-filled)"></path><g><text fill="black" x="815.125" y="463" style="text-anchor: middle; alignment-baseline: central;">writeLicenseFiles(files)</text></g><path d="M505,476 h620.25" style="stroke-width: 1; fill: none; stroke: black;" marker-end="url(#arrow-filled)"></path><g><text fill="black" x="1235.25" y="505" style="text-anchor: middle; alignment-baseline: central;">getModuleDirs(files)</text></g><path d="M1125.25,491 C1165.25,491 1165.25,524 1125.25,524" style="stroke-width: 1; fill: none; stroke: black;" marker-end="url(#arrow-filled)"></path><g><text fill="black" x="1320.375" y="539" style="text-anchor: middle; alignment-baseline: central;">aggregateMeta(moduleDirs)</text></g><path d="M1125.25,552 h390.25" style="stroke-width: 1; fill: none; stroke: black;" marker-end="url(#arrow-filled)"></path><g><text fill="black" x="1636" y="577" style="text-anchor: middle; alignment-baseline: central;">readPackageJson(moduleDir)</text></g><path d="M1515.5,590 h241" style="stroke-width: 1; fill: none; stroke: black;" marker-end="url(#arrow-filled)"></path><g><text fill="black" x="1636" y="615" style="text-anchor: middle; alignment-baseline: central;">meta</text></g><path d="M1756.5,628 h-241" style="stroke-width: 1; fill: none; stroke: black;" stroke-dasharray="7,4" marker-end="url(#arrow-filled)"></path><g><text fill="black" x="1728.25" y="653" style="text-anchor: middle; alignment-baseline: central;">identifyLicense(meta)</text></g><path d="M1515.5,666 h425.5" style="stroke-width: 1; fill: none; stroke: black;" marker-end="url(#arrow-filled)"></path><g><text fill="black" x="1728.25" y="691" style="text-anchor: middle; alignment-baseline: central;">license</text></g><path d="M1941,704 h-425.5" style="stroke-width: 1; fill: none; stroke: black;" stroke-dasharray="7,4" marker-end="url(#arrow-filled)"></path><g><text fill="black" x="1820.5" y="729" style="text-anchor: middle; alignment-baseline: central;">readLicenseText(meta)</text></g><path d="M1515.5,742 h610" style="stroke-width: 1; fill: none; stroke: black;" marker-end="url(#arrow-filled)"></path><g><text fill="black" x="1820.5" y="767" style="text-anchor: middle; alignment-baseline: central;">licenseText</text></g><path d="M2125.5,780 h-610" style="stroke-width: 1; fill: none; stroke: black;" stroke-dasharray="7,4" marker-end="url(#arrow-filled)"></path><g><text fill="black" x="1578.75" y="809" style="text-anchor: middle; alignment-baseline: central;">getAuthor</text></g><path d="M1515.5,795 C1555.5,795 1555.5,828 1515.5,828" style="stroke-width: 1; fill: none; stroke: black;" marker-end="url(#arrow-filled)"></path><g><text fill="black" x="1595.75" y="847" style="text-anchor: middle; alignment-baseline: central;">getRepository</text></g><path d="M1515.5,833 C1555.5,833 1555.5,866 1515.5,866" style="stroke-width: 1; fill: none; stroke: black;" marker-end="url(#arrow-filled)"></path><g><text fill="black" x="1608.5" y="885" style="text-anchor: middle; alignment-baseline: central;">getNpmTarballUrl</text></g><path d="M1515.5,871 C1555.5,871 1555.5,904 1515.5,904" style="stroke-width: 1; fill: none; stroke: black;" marker-end="url(#arrow-filled)"></path><g><text fill="black" x="1320.375" y="919" style="text-anchor: middle; alignment-baseline: central;">licenseMeta</text></g><path d="M1515.5,932 h-390.25" style="stroke-width: 1; fill: none; stroke: black;" stroke-dasharray="7,4" marker-end="url(#arrow-filled)"></path><g><text fill="black" x="1230.25" y="957" style="text-anchor: middle; alignment-baseline: central;">addFile(licenseMeta)</text></g><path d="M1125.25,970 h210" style="stroke-width: 1; fill: none; stroke: black;" marker-end="url(#arrow-filled)"></path></svg>