<?xml version="1.0" encoding="UTF-8" standalone="no"?>
<!DOCTYPE svg PUBLIC "-//W3C//DTD SVG 1.1//EN"
 "http://www.w3.org/Graphics/SVG/1.1/DTD/svg11.dtd">
<!-- Generated by graphviz version 2.40.1 (20161225.0304)
 -->
<!-- Title: G Pages: 1 -->
<svg width="951pt" height="903pt"
 viewBox="0.00 0.00 951.44 903.00" xmlns="http://www.w3.org/2000/svg" xmlns:xlink="http://www.w3.org/1999/xlink">
<g id="graph0" class="graph" transform="scale(1 1) rotate(0) translate(4 899)">
<title>G</title>
<polygon fill="#ffffff" stroke="transparent" points="-4,4 -4,-899 947.439,-899 947.439,4 -4,4"/>
<!-- A0 -->
<g id="node1" class="node">
<title>A0</title>
<polygon fill="none" stroke="#000000" points="131.871,-111 .043,-111 .043,-75 131.871,-75 131.871,-111"/>
<text text-anchor="middle" x="65.957" y="-90" font-family="Helvetica,sans-Serif" font-size="10.00" fill="#000000">LicenseWebpackPlugin</text>
</g>
<!-- A1 -->
<g id="node2" class="node">
<title>A1</title>
<polygon fill="#fff8dc" stroke="#000000" points="118.98,-57 6.934,-57 6.934,-13 124.98,-13 124.98,-51 118.98,-57"/>
<polyline fill="none" stroke="#000000" points="118.98,-57 118.98,-51 "/>
<polyline fill="none" stroke="#000000" points="124.98,-51 118.98,-51 "/>
<text text-anchor="middle" x="65.957" y="-44" font-family="Helvetica,sans-Serif" font-size="10.00" fill="#000000">constructed with</text>
<text text-anchor="middle" x="65.957" y="-32" font-family="Helvetica,sans-Serif" font-size="10.00" fill="#000000">options invoked with</text>
<text text-anchor="middle" x="65.957" y="-20" font-family="Helvetica,sans-Serif" font-size="10.00" fill="#000000">webpack.Compiler</text>
</g>
<!-- A0&#45;&gt;A1 -->
<g id="edge1" class="edge">
<title>A0&#45;&gt;A1</title>
<path fill="none" stroke="#000000" stroke-dasharray="5,2" d="M65.957,-74.8219C65.957,-68.949 65.957,-63.076 65.957,-57.2031"/>
</g>
<!-- A4 -->
<g id="node5" class="node">
<title>A4</title>
<polygon fill="none" stroke="#000000" points="326.4194,-175 182.0786,-175 182.0786,-139 326.4194,-139 326.4194,-175"/>
<text text-anchor="middle" x="254.249" y="-154" font-family="Helvetica,sans-Serif" font-size="10.00" fill="#000000">WebpackCompilerHandler</text>
</g>
<!-- A0&#45;&gt;A4 -->
<g id="edge3" class="edge">
<title>A0&#45;&gt;A4</title>
<path fill="none" stroke="#000000" d="M130.5726,-114.9627C153.5945,-122.7878 179.2376,-131.5038 201.1785,-138.9615"/>
<polygon fill="#000000" stroke="#000000" points="130.5206,-114.9451 123.5525,-116.8013 119.1589,-111.0832 126.127,-109.2269 130.5206,-114.9451"/>
<text text-anchor="middle" x="181.2965" y="-138.1309" font-family="Helvetica,sans-Serif" font-size="10.00" fill="#000000">1</text>
</g>
<!-- A17 -->
<g id="node18" class="node">
<title>A17</title>
<polygon fill="none" stroke="#000000" points="315.771,-47 192.727,-47 192.727,-11 315.771,-11 315.771,-47"/>
<text text-anchor="middle" x="254.249" y="-26" font-family="Helvetica,sans-Serif" font-size="10.00" fill="#000000">PluginOptionsReader</text>
</g>
<!-- A0&#45;&gt;A17 -->
<g id="edge20" class="edge">
<title>A0&#45;&gt;A17</title>
<path fill="none" stroke="#000000" d="M130.5726,-71.0373C153.5945,-63.2122 179.2376,-54.4962 201.1785,-47.0385"/>
<polygon fill="#000000" stroke="#000000" points="130.5206,-71.0549 126.127,-76.7731 119.1589,-74.9168 123.5525,-69.1987 130.5206,-71.0549"/>
<text text-anchor="middle" x="186.7367" y="-57.8745" font-family="Helvetica,sans-Serif" font-size="10.00" fill="#000000">1</text>
</g>
<!-- A2 -->
<g id="node3" class="node">
<title>A2</title>
<polygon fill="none" stroke="#000000" points="927.6571,-857 808.4229,-857 808.4229,-821 927.6571,-821 927.6571,-857"/>
<text text-anchor="middle" x="868.04" y="-836" font-family="Helvetica,sans-Serif" font-size="10.00" fill="#000000">WebpackFileSystem</text>
</g>
<!-- A3 -->
<g id="node4" class="node">
<title>A3</title>
<polygon fill="#fff8dc" stroke="#000000" points="917.2742,-803 812.8058,-803 812.8058,-759 923.2742,-759 923.2742,-797 917.2742,-803"/>
<polyline fill="none" stroke="#000000" points="917.2742,-803 917.2742,-797 "/>
<polyline fill="none" stroke="#000000" points="923.2742,-797 917.2742,-797 "/>
<text text-anchor="middle" x="868.04" y="-790" font-family="Helvetica,sans-Serif" font-size="10.00" fill="#000000">based on</text>
<text text-anchor="middle" x="868.04" y="-778" font-family="Helvetica,sans-Serif" font-size="10.00" fill="#000000">inputFileSystem of</text>
<text text-anchor="middle" x="868.04" y="-766" font-family="Helvetica,sans-Serif" font-size="10.00" fill="#000000">webpack.Compiler</text>
</g>
<!-- A2&#45;&gt;A3 -->
<g id="edge2" class="edge">
<title>A2&#45;&gt;A3</title>
<path fill="none" stroke="#000000" stroke-dasharray="5,2" d="M868.04,-820.8219C868.04,-814.949 868.04,-809.076 868.04,-803.2031"/>
</g>
<!-- A5 -->
<g id="node6" class="node">
<title>A5</title>
<polygon fill="none" stroke="#000000" points="529.629,-98 376.569,-98 376.569,-62 529.629,-62 529.629,-98"/>
<text text-anchor="middle" x="453.099" y="-77" font-family="Helvetica,sans-Serif" font-size="10.00" fill="#000000">ChunkIncludeExcludeTester</text>
</g>
<!-- A4&#45;&gt;A5 -->
<g id="edge4" class="edge">
<title>A4&#45;&gt;A5</title>
<path fill="none" stroke="#000000" d="M315.5434,-134.4826C319.2906,-132.9942 322.9948,-131.493 326.584,-130 349.1686,-120.6056 353.9157,-116.1906 376.584,-107 384.0251,-103.9831 391.9458,-100.9711 399.7638,-98.1115"/>
<polygon fill="#000000" stroke="#000000" points="315.4251,-134.5286 311.2884,-140.4352 304.2451,-138.8884 308.3819,-132.9818 315.4251,-134.5286"/>
<text text-anchor="middle" x="385.663" y="-109.2948" font-family="Helvetica,sans-Serif" font-size="10.00" fill="#000000">1</text>
</g>
<!-- A6 -->
<g id="node7" class="node">
<title>A6</title>
<polygon fill="none" stroke="#000000" points="524.6786,-446 381.5194,-446 381.5194,-410 524.6786,-410 524.6786,-446"/>
<text text-anchor="middle" x="453.099" y="-425" font-family="Helvetica,sans-Serif" font-size="10.00" fill="#000000">PluginChunkReadHandler</text>
</g>
<!-- A4&#45;&gt;A6 -->
<g id="edge5" class="edge">
<title>A4&#45;&gt;A6</title>
<path fill="none" stroke="#000000" d="M261.4004,-186.9791C275.086,-238.0388 309.7403,-342.0605 376.584,-401 380.3877,-404.3539 384.6347,-407.2985 389.1252,-409.8825"/>
<polygon fill="#000000" stroke="#000000" points="261.3593,-186.8192 255.9891,-182.0066 258.366,-175.1985 263.7362,-180.0111 261.3593,-186.8192"/>
<text text-anchor="middle" x="369.2141" y="-404.9991" font-family="Helvetica,sans-Serif" font-size="10.00" fill="#000000">1</text>
</g>
<!-- A7 -->
<g id="node8" class="node">
<title>A7</title>
<polygon fill="none" stroke="#000000" points="520.2341,-152 385.9639,-152 385.9639,-116 520.2341,-116 520.2341,-152"/>
<text text-anchor="middle" x="453.099" y="-131" font-family="Helvetica,sans-Serif" font-size="10.00" fill="#000000">WebpackAssetManager</text>
</g>
<!-- A4&#45;&gt;A7 -->
<g id="edge6" class="edge">
<title>A4&#45;&gt;A7</title>
<path fill="none" stroke="#000000" d="M338.5311,-147.2515C354.3001,-145.4276 370.5896,-143.5435 385.7623,-141.7885"/>
<polygon fill="#000000" stroke="#000000" points="338.5215,-147.2525 333.0208,-151.9155 326.6009,-148.6314 332.1016,-143.9685 338.5215,-147.2525"/>
<text text-anchor="middle" x="368.7274" y="-149.2676" font-family="Helvetica,sans-Serif" font-size="10.00" fill="#000000">1</text>
</g>
<!-- A9 -->
<g id="node10" class="node">
<title>A9</title>
<polygon fill="none" stroke="#000000" points="720.0924,-175 602.1626,-175 602.1626,-139 720.0924,-139 720.0924,-175"/>
<text text-anchor="middle" x="661.1275" y="-154" font-family="Helvetica,sans-Serif" font-size="10.00" fill="#000000">PluginModuleCache</text>
</g>
<!-- A4&#45;&gt;A9 -->
<g id="edge8" class="edge">
<title>A4&#45;&gt;A9</title>
<path fill="none" stroke="#000000" d="M338.7434,-160.1233C351.4241,-160.4875 364.3469,-160.8 376.584,-161 444.5883,-162.1115 461.6085,-162.034 529.614,-161 553.3677,-160.6388 579.5264,-159.911 602.2157,-159.1739"/>
<polygon fill="#000000" stroke="#000000" points="338.6846,-160.1216 332.5669,-163.9391 326.6901,-159.7603 332.8078,-155.9428 338.6846,-160.1216"/>
<text text-anchor="middle" x="584.3686" y="-165.2005" font-family="Helvetica,sans-Serif" font-size="10.00" fill="#000000">1</text>
</g>
<!-- A18 -->
<g id="node19" class="node">
<title>A18</title>
<polygon fill="#fff8dc" stroke="#000000" points="306.5945,-121 195.9035,-121 195.9035,-65 312.5945,-65 312.5945,-115 306.5945,-121"/>
<polyline fill="none" stroke="#000000" points="306.5945,-121 306.5945,-115 "/>
<polyline fill="none" stroke="#000000" points="312.5945,-115 306.5945,-115 "/>
<text text-anchor="middle" x="254.249" y="-108" font-family="Helvetica,sans-Serif" font-size="10.00" fill="#000000">hooks into</text>
<text text-anchor="middle" x="254.249" y="-96" font-family="Helvetica,sans-Serif" font-size="10.00" fill="#000000">compilation process</text>
<text text-anchor="middle" x="254.249" y="-84" font-family="Helvetica,sans-Serif" font-size="10.00" fill="#000000">and iterates over</text>
<text text-anchor="middle" x="254.249" y="-72" font-family="Helvetica,sans-Serif" font-size="10.00" fill="#000000">chunks</text>
</g>
<!-- A4&#45;&gt;A18 -->
<g id="edge22" class="edge">
<title>A4&#45;&gt;A18</title>
<path fill="none" stroke="#000000" stroke-dasharray="5,2" d="M254.249,-138.7188C254.249,-132.8125 254.249,-126.9063 254.249,-121"/>
</g>
<!-- A6&#45;&gt;A2 -->
<g id="edge11" class="edge">
<title>A6&#45;&gt;A2</title>
<path fill="none" stroke="#000000" d="M455.7976,-458.249C463.1963,-522.3411 489.6966,-672.2884 579.614,-750 635.9034,-798.6484 672.4582,-763.311 742.641,-788 765.8938,-796.1799 769.8961,-802.4988 792.641,-812 799.9539,-815.0548 807.7483,-818.0878 815.4471,-820.9573"/>
<polygon fill="#000000" stroke="#000000" points="455.7935,-458.2094 451.1821,-452.6655 454.526,-446.2765 459.1374,-451.8205 455.7935,-458.2094"/>
<text text-anchor="middle" x="795.5081" y="-819.5173" font-family="Helvetica,sans-Serif" font-size="10.00" fill="#000000">1</text>
</g>
<!-- A6&#45;&gt;A9 -->
<g id="edge23" class="edge">
<title>A6&#45;&gt;A9</title>
<path fill="none" stroke="#000000" stroke-dasharray="5,2" d="M519.4293,-409.8823C523.1636,-407.3054 526.6112,-404.362 529.614,-401 595.5423,-327.1839 512.9738,-257.1741 579.614,-184 583.6009,-179.6222 588.3128,-175.9529 593.4289,-172.8776"/>
<polygon fill="#000000" stroke="#000000" points="602.3636,-168.2428 595.559,-176.8421 597.9252,-170.5452 593.4868,-172.8476 593.4868,-172.8476 593.4868,-172.8476 597.9252,-170.5452 591.4147,-168.8531 602.3636,-168.2428 602.3636,-168.2428"/>
</g>
<!-- A10 -->
<g id="node11" class="node">
<title>A10</title>
<polygon fill="none" stroke="#000000" points="897.6641,-625 838.4159,-625 838.4159,-589 897.6641,-589 897.6641,-625"/>
<text text-anchor="middle" x="868.04" y="-604" font-family="Helvetica,sans-Serif" font-size="10.00" fill="#000000">Logger</text>
</g>
<!-- A6&#45;&gt;A10 -->
<g id="edge9" class="edge">
<title>A6&#45;&gt;A10</title>
<path fill="none" stroke="#000000" d="M537.1167,-433.9078C609.6063,-440.1377 707.9481,-451.6368 742.641,-470 795.9324,-498.2075 838.2794,-558.3067 857.2356,-588.6547"/>
<polygon fill="#000000" stroke="#000000" points="536.7711,-433.879 530.4587,-437.3652 524.8128,-432.8792 531.1252,-429.393 536.7711,-433.879"/>
<text text-anchor="middle" x="840.332" y="-574.965" font-family="Helvetica,sans-Serif" font-size="10.00" fill="#000000">1</text>
</g>
<!-- A11 -->
<g id="node12" class="node">
<title>A11</title>
<polygon fill="none" stroke="#000000" points="714.5206,-895 607.7344,-895 607.7344,-859 714.5206,-859 714.5206,-895"/>
<text text-anchor="middle" x="661.1275" y="-874" font-family="Helvetica,sans-Serif" font-size="10.00" fill="#000000">PluginFileHandler</text>
</g>
<!-- A6&#45;&gt;A11 -->
<g id="edge10" class="edge">
<title>A6&#45;&gt;A11</title>
<path fill="none" stroke="#000000" d="M458.4168,-458.1418C474.2681,-544.8413 523.5882,-792.3492 579.614,-850 587.1984,-857.8044 597.0856,-863.3534 607.3454,-867.2985"/>
<polygon fill="#000000" stroke="#000000" points="458.3764,-457.9174 453.3738,-452.7238 456.2438,-446.1084 461.2464,-451.3021 458.3764,-457.9174"/>
<text text-anchor="middle" x="587.3746" y="-865.3787" font-family="Helvetica,sans-Serif" font-size="10.00" fill="#000000">1</text>
</g>
<!-- A12 -->
<g id="node13" class="node">
<title>A12</title>
<polygon fill="none" stroke="#000000" points="736.4336,-625 585.8214,-625 585.8214,-589 736.4336,-589 736.4336,-625"/>
<text text-anchor="middle" x="661.1275" y="-604" font-family="Helvetica,sans-Serif" font-size="10.00" fill="#000000">PluginLicenseTypeIdentifier</text>
</g>
<!-- A6&#45;&gt;A12 -->
<g id="edge12" class="edge">
<title>A6&#45;&gt;A12</title>
<path fill="none" stroke="#000000" d="M469.9146,-456.6543C491.2995,-490.7169 531.3118,-547.0784 579.614,-580 584.5414,-583.3584 589.9191,-586.3265 595.4861,-588.9443"/>
<polygon fill="#000000" stroke="#000000" points="469.6675,-456.2515 463.1201,-453.2296 463.3914,-446.0235 469.9388,-449.0455 469.6675,-456.2515"/>
<text text-anchor="middle" x="575.487" y="-585.749" font-family="Helvetica,sans-Serif" font-size="10.00" fill="#000000">1</text>
</g>
<!-- A13 -->
<g id="node14" class="node">
<title>A13</title>
<polygon fill="none" stroke="#000000" points="718.3139,-741 603.9411,-741 603.9411,-705 718.3139,-705 718.3139,-741"/>
<text text-anchor="middle" x="661.1275" y="-720" font-family="Helvetica,sans-Serif" font-size="10.00" fill="#000000">LicenseTextReader</text>
</g>
<!-- A6&#45;&gt;A13 -->
<g id="edge14" class="edge">
<title>A6&#45;&gt;A13</title>
<path fill="none" stroke="#000000" d="M459.1626,-458.3071C471.7667,-513.5173 505.977,-630.7874 579.614,-696 586.5335,-702.1279 594.8825,-706.8712 603.5627,-710.5413"/>
<polygon fill="#000000" stroke="#000000" points="459.0974,-458.0081 453.91,-452.999 456.5386,-446.2841 461.726,-451.2932 459.0974,-458.0081"/>
<text text-anchor="middle" x="583.5686" y="-708.0257" font-family="Helvetica,sans-Serif" font-size="10.00" fill="#000000">1</text>
</g>
<!-- A15 -->
<g id="node16" class="node">
<title>A15</title>
<polygon fill="none" stroke="#000000" points="719.5325,-315 602.7225,-315 602.7225,-279 719.5325,-279 719.5325,-315"/>
<text text-anchor="middle" x="661.1275" y="-294" font-family="Helvetica,sans-Serif" font-size="10.00" fill="#000000">PluginLicensePolicy</text>
</g>
<!-- A6&#45;&gt;A15 -->
<g id="edge18" class="edge">
<title>A6&#45;&gt;A15</title>
<path fill="none" stroke="#000000" d="M526.3813,-403.4117C527.4839,-402.6316 528.5626,-401.8279 529.614,-401 561.6718,-375.7554 547.3132,-348.9329 579.614,-324 586.4586,-318.7167 594.3859,-314.4414 602.5539,-310.9887"/>
<polygon fill="#000000" stroke="#000000" points="526.147,-403.5549 523.1133,-410.0968 515.9078,-409.8127 518.9414,-403.2707 526.147,-403.5549"/>
<text text-anchor="middle" x="589.2949" y="-322.962" font-family="Helvetica,sans-Serif" font-size="10.00" fill="#000000">1</text>
</g>
<!-- A19 -->
<g id="node20" class="node">
<title>A19</title>
<polygon fill="none" stroke="#000000" points="742.6545,-423 579.6005,-423 579.6005,-387 742.6545,-387 742.6545,-423"/>
<text text-anchor="middle" x="661.1275" y="-402" font-family="Helvetica,sans-Serif" font-size="10.00" fill="#000000">WebpackChunkModuleIterator</text>
</g>
<!-- A6&#45;&gt;A19 -->
<g id="edge25" class="edge">
<title>A6&#45;&gt;A19</title>
<path fill="none" stroke="#000000" d="M536.8587,-418.7394C550.8857,-417.1885 565.4239,-415.5812 579.399,-414.0361"/>
<polygon fill="#000000" stroke="#000000" points="536.6179,-418.7659 531.0939,-423.4011 524.6906,-420.0847 530.2147,-415.4495 536.6179,-418.7659"/>
<text text-anchor="middle" x="562.3114" y="-421.4291" font-family="Helvetica,sans-Serif" font-size="10.00" fill="#000000">1</text>
</g>
<!-- A20 -->
<g id="node21" class="node">
<title>A20</title>
<polygon fill="none" stroke="#000000" points="736.3647,-369 585.8903,-369 585.8903,-333 736.3647,-333 736.3647,-369"/>
<text text-anchor="middle" x="661.1275" y="-348" font-family="Helvetica,sans-Serif" font-size="10.00" fill="#000000">WebpackModuleFileIterator</text>
</g>
<!-- A6&#45;&gt;A20 -->
<g id="edge26" class="edge">
<title>A6&#45;&gt;A20</title>
<path fill="none" stroke="#000000" d="M517.8009,-405.6426C521.8129,-404.1099 525.7772,-402.5556 529.614,-401 552.2823,-391.8094 556.8577,-386.9706 579.614,-378 587.3807,-374.9383 595.65,-371.9242 603.8304,-369.0832"/>
<polygon fill="#000000" stroke="#000000" points="517.6756,-405.6894 513.4546,-411.5361 506.4342,-409.8885 510.6552,-404.0418 517.6756,-405.6894"/>
<text text-anchor="middle" x="589.5024" y="-380.037" font-family="Helvetica,sans-Serif" font-size="10.00" fill="#000000">1</text>
</g>
<!-- A22 -->
<g id="node23" class="node">
<title>A22</title>
<polygon fill="#fff8dc" stroke="#000000" points="505.511,-392 394.687,-392 394.687,-348 511.511,-348 511.511,-386 505.511,-392"/>
<polyline fill="none" stroke="#000000" points="505.511,-392 505.511,-386 "/>
<polyline fill="none" stroke="#000000" points="511.511,-386 505.511,-386 "/>
<text text-anchor="middle" x="453.099" y="-379" font-family="Helvetica,sans-Serif" font-size="10.00" fill="#000000">iterates over</text>
<text text-anchor="middle" x="453.099" y="-367" font-family="Helvetica,sans-Serif" font-size="10.00" fill="#000000">modules and files of</text>
<text text-anchor="middle" x="453.099" y="-355" font-family="Helvetica,sans-Serif" font-size="10.00" fill="#000000">a chunk</text>
</g>
<!-- A6&#45;&gt;A22 -->
<g id="edge28" class="edge">
<title>A6&#45;&gt;A22</title>
<path fill="none" stroke="#000000" stroke-dasharray="5,2" d="M453.099,-409.8219C453.099,-403.949 453.099,-398.076 453.099,-392.2031"/>
</g>
<!-- A8 -->
<g id="node9" class="node">
<title>A8</title>
<polygon fill="none" stroke="#000000" points="729.5385,-67 592.7165,-67 592.7165,-31 729.5385,-31 729.5385,-67"/>
<text text-anchor="middle" x="661.1275" y="-46" font-family="Helvetica,sans-Serif" font-size="10.00" fill="#000000">PluginLicensesRenderer</text>
</g>
<!-- A7&#45;&gt;A8 -->
<g id="edge7" class="edge">
<title>A7&#45;&gt;A8</title>
<path fill="none" stroke="#000000" d="M520.0614,-111.3337C523.3177,-109.9312 526.5179,-108.4846 529.614,-107 553.1905,-95.6951 555.9291,-87.0761 579.614,-76 586.5011,-72.7793 593.8792,-69.7703 601.2794,-67.0164"/>
<polygon fill="#000000" stroke="#000000" points="519.9495,-111.3794 515.9107,-117.3534 508.8429,-115.9229 512.8817,-109.9489 519.9495,-111.3794"/>
<text text-anchor="middle" x="587.2847" y="-78.3044" font-family="Helvetica,sans-Serif" font-size="10.00" fill="#000000">1</text>
</g>
<!-- A7&#45;&gt;A9 -->
<g id="edge24" class="edge">
<title>A7&#45;&gt;A9</title>
<path fill="none" stroke="#000000" stroke-dasharray="5,2" d="M520.3526,-141.4357C543.3087,-143.9737 569.0064,-146.8149 592.0998,-149.3682"/>
<polygon fill="#000000" stroke="#000000" points="602.1636,-150.4808 591.7296,-153.8546 597.1939,-149.9313 592.2241,-149.3818 592.2241,-149.3818 592.2241,-149.3818 597.1939,-149.9313 592.7187,-144.9091 602.1636,-150.4808 602.1636,-150.4808"/>
</g>
<!-- A26 -->
<g id="node27" class="node">
<title>A26</title>
<polygon fill="#fff8dc" stroke="#000000" points="502.3363,-44 397.8617,-44 397.8617,0 508.3363,0 508.3363,-38 502.3363,-44"/>
<polyline fill="none" stroke="#000000" points="502.3363,-44 502.3363,-38 "/>
<polyline fill="none" stroke="#000000" points="508.3363,-38 502.3363,-38 "/>
<text text-anchor="middle" x="453.099" y="-31" font-family="Helvetica,sans-Serif" font-size="10.00" fill="#000000">writes/adds assets</text>
<text text-anchor="middle" x="453.099" y="-19" font-family="Helvetica,sans-Serif" font-size="10.00" fill="#000000">via</text>
<text text-anchor="middle" x="453.099" y="-7" font-family="Helvetica,sans-Serif" font-size="10.00" fill="#000000">webpack.Compiler</text>
</g>
<!-- A7&#45;&gt;A26 -->
<g id="edge32" class="edge">
<title>A7&#45;&gt;A26</title>
<path fill="none" stroke="#000000" stroke-dasharray="5,2" d="M386.0161,-123.1937C372.5085,-117.8338 359.9172,-109.8567 351.584,-98 342.3838,-84.9097 342.5798,-75.2259 351.584,-62 362.2444,-46.3414 380.0663,-36.8126 397.8281,-31.0139"/>
</g>
<!-- A27 -->
<g id="node28" class="node">
<title>A27</title>
<polygon fill="#fff8dc" stroke="#000000" points="722.3208,-121 593.9342,-121 593.9342,-85 728.3208,-85 728.3208,-115 722.3208,-121"/>
<polyline fill="none" stroke="#000000" points="722.3208,-121 722.3208,-115 "/>
<polyline fill="none" stroke="#000000" points="728.3208,-115 722.3208,-115 "/>
<text text-anchor="middle" x="661.1275" y="-106" font-family="Helvetica,sans-Serif" font-size="10.00" fill="#000000">manages chunk&#45;module</text>
<text text-anchor="middle" x="661.1275" y="-94" font-family="Helvetica,sans-Serif" font-size="10.00" fill="#000000">correlations</text>
</g>
<!-- A9&#45;&gt;A27 -->
<g id="edge33" class="edge">
<title>A9&#45;&gt;A27</title>
<path fill="none" stroke="#000000" stroke-dasharray="5,2" d="M661.1275,-138.7902C661.1275,-132.907 661.1275,-127.0238 661.1275,-121.1406"/>
</g>
<!-- A11&#45;&gt;A2 -->
<g id="edge21" class="edge">
<title>A11&#45;&gt;A2</title>
<path fill="none" stroke="#000000" d="M726.7633,-864.9458C752.8486,-860.1552 782.6536,-854.6814 808.143,-850.0002"/>
<polygon fill="#000000" stroke="#000000" points="726.4843,-864.997 721.3056,-870.015 714.6817,-867.1646 719.8605,-862.1466 726.4843,-864.997"/>
<text text-anchor="middle" x="791.8417" y="-858.5877" font-family="Helvetica,sans-Serif" font-size="10.00" fill="#000000">1</text>
</g>
<!-- A21 -->
<g id="node22" class="node">
<title>A21</title>
<polygon fill="#fff8dc" stroke="#000000" points="709.1325,-841 607.1225,-841 607.1225,-797 715.1325,-797 715.1325,-835 709.1325,-841"/>
<polyline fill="none" stroke="#000000" points="709.1325,-841 709.1325,-835 "/>
<polyline fill="none" stroke="#000000" points="715.1325,-835 709.1325,-835 "/>
<text text-anchor="middle" x="661.1275" y="-828" font-family="Helvetica,sans-Serif" font-size="10.00" fill="#000000">finds the module</text>
<text text-anchor="middle" x="661.1275" y="-816" font-family="Helvetica,sans-Serif" font-size="10.00" fill="#000000">directory for every</text>
<text text-anchor="middle" x="661.1275" y="-804" font-family="Helvetica,sans-Serif" font-size="10.00" fill="#000000">file</text>
</g>
<!-- A11&#45;&gt;A21 -->
<g id="edge27" class="edge">
<title>A11&#45;&gt;A21</title>
<path fill="none" stroke="#000000" stroke-dasharray="5,2" d="M661.1275,-858.8219C661.1275,-852.949 661.1275,-847.076 661.1275,-841.2031"/>
</g>
<!-- A12&#45;&gt;A10 -->
<g id="edge13" class="edge">
<title>A12&#45;&gt;A10</title>
<path fill="none" stroke="#000000" d="M748.825,-607C780.7768,-607 814.7821,-607 838.2624,-607"/>
<polygon fill="#000000" stroke="#000000" points="748.706,-607.0001 742.7059,-611 736.706,-607 742.706,-603 748.706,-607.0001"/>
<text text-anchor="middle" x="820.1363" y="-612.4524" font-family="Helvetica,sans-Serif" font-size="10.00" fill="#000000">1</text>
</g>
<!-- A24 -->
<g id="node25" class="node">
<title>A24</title>
<polygon fill="#fff8dc" stroke="#000000" points="713.5405,-571 602.7145,-571 602.7145,-479 719.5405,-479 719.5405,-565 713.5405,-571"/>
<polyline fill="none" stroke="#000000" points="713.5405,-571 713.5405,-565 "/>
<polyline fill="none" stroke="#000000" points="719.5405,-565 713.5405,-565 "/>
<text text-anchor="middle" x="661.1275" y="-558" font-family="Helvetica,sans-Serif" font-size="10.00" fill="#000000">identifies license</text>
<text text-anchor="middle" x="661.1275" y="-546" font-family="Helvetica,sans-Serif" font-size="10.00" fill="#000000">type based on</text>
<text text-anchor="middle" x="661.1275" y="-534" font-family="Helvetica,sans-Serif" font-size="10.00" fill="#000000">package.json and</text>
<text text-anchor="middle" x="661.1275" y="-522" font-family="Helvetica,sans-Serif" font-size="10.00" fill="#000000">selects preferred if</text>
<text text-anchor="middle" x="661.1275" y="-510" font-family="Helvetica,sans-Serif" font-size="10.00" fill="#000000">multiple are found</text>
<text text-anchor="middle" x="661.1275" y="-498" font-family="Helvetica,sans-Serif" font-size="10.00" fill="#000000">(doesnt do SPDX or</text>
<text text-anchor="middle" x="661.1275" y="-486" font-family="Helvetica,sans-Serif" font-size="10.00" fill="#000000">though)</text>
</g>
<!-- A12&#45;&gt;A24 -->
<g id="edge30" class="edge">
<title>A12&#45;&gt;A24</title>
<path fill="none" stroke="#000000" stroke-dasharray="5,2" d="M661.1275,-588.7822C661.1275,-582.8965 661.1275,-577.0107 661.1275,-571.125"/>
</g>
<!-- A13&#45;&gt;A2 -->
<g id="edge16" class="edge">
<title>A13&#45;&gt;A2</title>
<path fill="none" stroke="#000000" d="M728.6416,-746.4715C733.5286,-749.0779 738.2539,-751.918 742.641,-755 770.2156,-774.3713 764.7769,-793.0475 792.641,-812 797.4696,-815.2843 802.7433,-818.2177 808.1861,-820.8269"/>
<polygon fill="#000000" stroke="#000000" points="728.5289,-746.4164 721.3809,-747.368 717.7532,-741.1358 724.9013,-740.1842 728.5289,-746.4164"/>
<text text-anchor="middle" x="788.1889" y="-817.4904" font-family="Helvetica,sans-Serif" font-size="10.00" fill="#000000">1</text>
</g>
<!-- A13&#45;&gt;A10 -->
<g id="edge15" class="edge">
<title>A13&#45;&gt;A10</title>
<path fill="none" stroke="#000000" d="M729.4135,-703.764C734.0437,-701.4452 738.5055,-698.8658 742.641,-696 771.7372,-675.837 763.7889,-654.5108 792.641,-634 806.2398,-624.3327 823.6569,-617.7958 838.3246,-613.5788"/>
<polygon fill="#000000" stroke="#000000" points="729.3273,-703.8026 725.4897,-709.9078 718.3782,-708.7135 722.2158,-702.6083 729.3273,-703.8026"/>
<text text-anchor="middle" x="823.3716" y="-623.8607" font-family="Helvetica,sans-Serif" font-size="10.00" fill="#000000">1</text>
</g>
<!-- A14 -->
<g id="node15" class="node">
<title>A14</title>
<polygon fill="none" stroke="#000000" points="943.3381,-741 792.7419,-741 792.7419,-705 943.3381,-705 943.3381,-741"/>
<text text-anchor="middle" x="868.04" y="-720" font-family="Helvetica,sans-Serif" font-size="10.00" fill="#000000">DefaultLicenseTextProvider</text>
</g>
<!-- A13&#45;&gt;A14 -->
<g id="edge17" class="edge">
<title>A13&#45;&gt;A14</title>
<path fill="none" stroke="#000000" d="M730.6363,-723C750.5878,-723 772.4336,-723 792.7179,-723"/>
<polygon fill="#000000" stroke="#000000" points="730.4894,-723.0001 724.4894,-727 718.4894,-723 724.4894,-719 730.4894,-723.0001"/>
<text text-anchor="middle" x="774.5918" y="-728.4524" font-family="Helvetica,sans-Serif" font-size="10.00" fill="#000000">1</text>
</g>
<!-- A25 -->
<g id="node26" class="node">
<title>A25</title>
<polygon fill="#fff8dc" stroke="#000000" points="705.4237,-687 610.8313,-687 610.8313,-643 711.4237,-643 711.4237,-681 705.4237,-687"/>
<polyline fill="none" stroke="#000000" points="705.4237,-687 705.4237,-681 "/>
<polyline fill="none" stroke="#000000" points="711.4237,-681 705.4237,-681 "/>
<text text-anchor="middle" x="661.1275" y="-674" font-family="Helvetica,sans-Serif" font-size="10.00" fill="#000000">tries to identifiy</text>
<text text-anchor="middle" x="661.1275" y="-662" font-family="Helvetica,sans-Serif" font-size="10.00" fill="#000000">license file and</text>
<text text-anchor="middle" x="661.1275" y="-650" font-family="Helvetica,sans-Serif" font-size="10.00" fill="#000000">read license text</text>
</g>
<!-- A13&#45;&gt;A25 -->
<g id="edge31" class="edge">
<title>A13&#45;&gt;A25</title>
<path fill="none" stroke="#000000" stroke-dasharray="5,2" d="M661.1275,-704.8219C661.1275,-698.949 661.1275,-693.076 661.1275,-687.2031"/>
</g>
<!-- A28 -->
<g id="node29" class="node">
<title>A28</title>
<polygon fill="#fff8dc" stroke="#000000" points="914.8262,-687 815.2538,-687 815.2538,-643 920.8262,-643 920.8262,-681 914.8262,-687"/>
<polyline fill="none" stroke="#000000" points="914.8262,-687 914.8262,-681 "/>
<polyline fill="none" stroke="#000000" points="920.8262,-681 914.8262,-681 "/>
<text text-anchor="middle" x="868.04" y="-674" font-family="Helvetica,sans-Serif" font-size="10.00" fill="#000000">provides default</text>
<text text-anchor="middle" x="868.04" y="-662" font-family="Helvetica,sans-Serif" font-size="10.00" fill="#000000">license texts from</text>
<text text-anchor="middle" x="868.04" y="-650" font-family="Helvetica,sans-Serif" font-size="10.00" fill="#000000">spdx or file</text>
</g>
<!-- A14&#45;&gt;A28 -->
<g id="edge34" class="edge">
<title>A14&#45;&gt;A28</title>
<path fill="none" stroke="#000000" stroke-dasharray="5,2" d="M868.04,-704.8219C868.04,-698.949 868.04,-693.076 868.04,-687.2031"/>
</g>
<!-- A16 -->
<g id="node17" class="node">
<title>A16</title>
<polygon fill="none" stroke="#000000" points="939.5108,-315 796.5692,-315 796.5692,-279 939.5108,-279 939.5108,-315"/>
<text text-anchor="middle" x="868.04" y="-294" font-family="Helvetica,sans-Serif" font-size="10.00" fill="#000000">PluginLicenseTestRunner</text>
</g>
<!-- A15&#45;&gt;A16 -->
<g id="edge19" class="edge">
<title>A15&#45;&gt;A16</title>
<path fill="none" stroke="#000000" d="M731.6459,-297C752.5649,-297 775.49,-297 796.4748,-297"/>
<polygon fill="#000000" stroke="#000000" points="731.5907,-297.0001 725.5906,-301 719.5907,-297 725.5907,-293 731.5907,-297.0001"/>
<text text-anchor="middle" x="778.3486" y="-302.4524" font-family="Helvetica,sans-Serif" font-size="10.00" fill="#000000">2</text>
</g>
<!-- A23 -->
<g id="node24" class="node">
<title>A23</title>
<polygon fill="#fff8dc" stroke="#000000" points="704.806,-261 611.449,-261 611.449,-193 710.806,-193 710.806,-255 704.806,-261"/>
<polyline fill="none" stroke="#000000" points="704.806,-261 704.806,-255 "/>
<polyline fill="none" stroke="#000000" points="710.806,-255 704.806,-255 "/>
<text text-anchor="middle" x="661.1275" y="-248" font-family="Helvetica,sans-Serif" font-size="10.00" fill="#000000">performs</text>
<text text-anchor="middle" x="661.1275" y="-236" font-family="Helvetica,sans-Serif" font-size="10.00" fill="#000000">blacklisting,</text>
<text text-anchor="middle" x="661.1275" y="-224" font-family="Helvetica,sans-Serif" font-size="10.00" fill="#000000">whitelisting and</text>
<text text-anchor="middle" x="661.1275" y="-212" font-family="Helvetica,sans-Serif" font-size="10.00" fill="#000000">handles missing</text>
<text text-anchor="middle" x="661.1275" y="-200" font-family="Helvetica,sans-Serif" font-size="10.00" fill="#000000">liense texts</text>
</g>
<!-- A15&#45;&gt;A23 -->
<g id="edge29" class="edge">
<title>A15&#45;&gt;A23</title>
<path fill="none" stroke="#000000" stroke-dasharray="5,2" d="M661.1275,-278.81C661.1275,-272.9332 661.1275,-267.0565 661.1275,-261.1797"/>
</g>
</g>
</svg>
